<svg width="133" height="88" viewBox="0 0 133 88" fill="none" xmlns="http://www.w3.org/2000/svg">
<path d="M90.6621 86.8818L90.6546 86.882L90.6541 86.882L90.6537 86.882H90.6533H42.5614H42.561H42.5607L42.5606 86.882L42.5601 86.882L42.5526 86.8818C42.5446 86.8817 42.5311 86.8813 42.5127 86.8806C42.4757 86.8791 42.4187 86.876 42.3446 86.8697C42.1962 86.8569 41.9801 86.8311 41.7191 86.7787C41.1952 86.6737 40.5016 86.4644 39.8119 86.0497C38.4649 85.2397 37.0483 83.5979 37.0483 80.1516C37.0483 76.6328 38.5232 69.5055 42.9673 63.2698C47.3923 57.0608 54.7619 51.7303 66.6073 51.7303C78.4528 51.7303 85.8224 57.0608 90.2474 63.2698C94.6915 69.5055 96.1664 76.6328 96.1664 80.1516C96.1664 83.5979 94.7498 85.2397 93.4028 86.0497C92.7131 86.4644 92.0195 86.6737 91.4956 86.7787C91.2346 86.8311 91.0185 86.8569 90.8701 86.8697C90.796 86.876 90.739 86.8791 90.702 86.8806C90.6836 86.8813 90.6701 86.8817 90.6621 86.8818ZM78.9758 37.3271C75.6772 41.2944 71.2251 43.4999 66.6073 43.4999C61.9896 43.4999 57.5375 41.2944 54.2389 37.3271C50.9379 33.3571 49.0719 27.9559 49.0719 22.3089C49.0719 16.6619 50.9379 11.2607 54.2389 7.29074C57.5375 3.32344 61.9896 1.11792 66.6073 1.11792C71.2251 1.11792 75.6772 3.32344 78.9758 7.29074C82.2768 11.2607 84.1428 16.6619 84.1428 22.3089C84.1428 27.9559 82.2768 33.3571 78.9758 37.3271Z" fill="#151719" stroke="url(#paint0_radial_146_800)"/>
<path d="M41.2415 53.4524C33.9646 60.5341 30.0373 70.4791 30.0363 80.1478C30.0024 82.4589 30.3702 84.752 31.1154 86.8818L6.49037 86.8818L6.49 86.8818H6.48962L6.48951 86.8818L6.4891 86.8818L6.48155 86.8817C6.47351 86.8815 6.46007 86.8812 6.44161 86.8805C6.40467 86.879 6.3477 86.8759 6.27357 86.8695C6.12515 86.8568 5.90905 86.8309 5.64802 86.7786C5.12417 86.6736 4.43052 86.4643 3.74087 86.0495C2.39385 85.2395 0.977295 83.5978 0.977295 80.1515C0.977295 76.6326 2.45213 69.5054 6.89627 63.2696C11.3213 57.0607 18.6909 51.7301 30.5363 51.7301V51.7302L30.5433 51.7301C34.1598 51.6795 37.7631 52.2597 41.2415 53.4524Z" fill="#151719" stroke="url(#paint1_radial_146_800)"/>
<path d="M37.7737 38.3859C35.0388 41.6752 31.3513 43.4998 27.5307 43.4998C23.7102 43.4998 20.0227 41.6752 17.2877 38.3859C14.5505 35.0939 13.0012 30.6122 13.0012 25.924C13.0012 21.2358 14.5505 16.7541 17.2877 13.4621C20.0227 10.1728 23.7102 8.34814 27.5307 8.34814C31.3513 8.34814 35.0388 10.1728 37.7737 13.4621C40.5109 16.7541 42.0602 21.2358 42.0602 25.924C42.0602 30.6122 40.5109 35.0939 37.7737 38.3859Z" fill="#151719" stroke="url(#paint2_radial_146_800)"/>
<path d="M115.953 38.9423C113.218 42.2316 109.53 44.0562 105.71 44.0562C101.889 44.0562 98.2019 42.2316 95.4669 38.9423C92.7297 35.6503 91.1804 31.1686 91.1804 26.4804C91.1804 21.7922 92.7297 17.3105 95.4669 14.0185C98.2019 10.7292 101.889 8.90454 105.71 8.90454C109.53 8.90454 113.218 10.7292 115.953 14.0185C118.69 17.3105 120.239 21.7922 120.239 26.4804C120.239 31.1686 118.69 35.6503 115.953 38.9423Z" fill="#151719" stroke="url(#paint3_radial_146_800)"/>
<path d="M91.6142 53.6412C98.8911 60.7228 102.818 70.6678 102.819 80.3365C102.853 82.6476 102.485 84.9408 101.74 87.0705L126.365 87.0706L126.366 87.0705H126.366L126.366 87.0705L126.367 87.0705L126.374 87.0704C126.382 87.0703 126.396 87.0699 126.414 87.0692C126.451 87.0677 126.508 87.0646 126.582 87.0583C126.731 87.0455 126.947 87.0196 127.208 86.9673C127.732 86.8623 128.425 86.653 129.115 86.2383C130.462 85.4282 131.878 83.7865 131.878 80.3402C131.878 76.8213 130.404 69.6941 125.959 63.4583C121.534 57.2494 114.165 51.9189 102.319 51.9189V51.9189L102.312 51.9188C98.6959 51.8682 95.0926 52.4485 91.6142 53.6412Z" fill="#151719" stroke="url(#paint4_radial_146_800)"/>
<defs>
<radialGradient id="paint0_radial_146_800" cx="0" cy="0" r="1" gradientUnits="userSpaceOnUse" gradientTransform="translate(67 -7.99999) rotate(95.7106) scale(276.372 192.667)">
<stop stop-color="#D3FF55"/>
<stop offset="0.932292" stop-opacity="0.729167"/>
<stop offset="1" stop-opacity="0"/>
</radialGradient>
<radialGradient id="paint1_radial_146_800" cx="0" cy="0" r="1" gradientUnits="userSpaceOnUse" gradientTransform="translate(24.176 40.7864) rotate(99.9288) scale(92.9768 108.279)">
<stop stop-color="#F800C1"/>
<stop offset="1" stop-opacity="0"/>
</radialGradient>
<radialGradient id="paint2_radial_146_800" cx="0" cy="0" r="1" gradientUnits="userSpaceOnUse" gradientTransform="translate(26.9644 11.865) rotate(116.371) scale(87.8752 77.8003)">
<stop stop-color="#FF00F5"/>
<stop offset="1" stop-opacity="0"/>
</radialGradient>
<radialGradient id="paint3_radial_146_800" cx="0" cy="0" r="1" gradientUnits="userSpaceOnUse" gradientTransform="translate(105.144 12.4214) rotate(116.371) scale(87.8752 77.8003)">
<stop stop-color="#FF00F5"/>
<stop offset="1" stop-opacity="0"/>
</radialGradient>
<radialGradient id="paint4_radial_146_800" cx="0" cy="0" r="1" gradientUnits="userSpaceOnUse" gradientTransform="translate(108.68 40.9751) rotate(80.0712) scale(92.9768 108.279)">
<stop stop-color="#7B78FF"/>
<stop offset="1" stop-opacity="0"/>
</radialGradient>
</defs>
</svg>
